<?xml version="1.0" encoding="UTF-8"?>
<svg version="1.1" xmlns="http://www.w3.org/2000/svg" width="1024" height="600">
<path d="M0 0 C1.12664062 0.60457031 2.25328125 1.20914063 3.4140625 1.83203125 C14.34894709 7.81555223 23.90489162 15.29161085 33.5859375 23.11328125 C35.92177529 24.93886321 38.30537162 26.63629715 40.75 28.3125 C46.32806186 32.14631077 51.60118697 36.33930591 56.8984375 40.546875 C58.70402633 41.97497296 60.53299223 43.37602688 62.4140625 44.703125 C62.93742188 45.13109375 63.46078125 45.5590625 64 46 C64 46.66 64 47.32 64 48 C64.59039062 48.26167969 65.18078125 48.52335937 65.7890625 48.79296875 C68.11713599 50.0639488 69.56029999 51.39130352 71.375 53.3125 C73.62960527 55.64988775 75.89463817 57.79263812 78.4375 59.8125 C79.283125 60.534375 80.12875 61.25625 81 62 C81 62.66 81 63.32 81 64 C81.66 64 82.32 64 83 64 C83 64.66 83 65.32 83 66 C83.99 66.33 84.98 66.66 86 67 C91 72.46511628 91 72.46511628 91 75 C91.66 75 92.32 75 93 75 C94.72070313 77.19287109 94.72070313 77.19287109 96.78125 80.2734375 C97.15115051 80.82410385 97.52105103 81.3747702 97.90216064 81.94212341 C99.10999925 83.74754938 100.3059235 85.56044694 101.5 87.375 C101.90706177 87.98991302 102.31412354 88.60482605 102.73352051 89.2383728 C131.56732464 132.84996423 141.44335744 178.10671695 141 230 C143.70567127 231.35283563 145.87486365 231.17567161 148.90525818 231.23414612 C150.16476791 231.26076324 151.42427765 231.28738037 152.72195435 231.31480408 C154.12640218 231.33960045 155.53085171 231.36430118 156.93530273 231.38891602 C158.40901995 231.41821464 159.88272896 231.44792846 161.35643005 231.47802734 C165.37444855 231.55883269 169.39255945 231.63359462 173.41071582 231.70718122 C177.63691361 231.78545264 181.86301231 231.86876457 186.08912659 231.95140076 C193.21389885 232.08995245 200.33873455 232.22474603 207.46362305 232.35717773 C215.63159125 232.50902686 223.79944915 232.66593221 231.96726269 232.82587105 C239.87151469 232.98058672 247.77582223 233.13225434 255.68016243 233.2823925 C259.01554056 233.34575504 262.35089994 233.40999427 265.68624687 233.47497749 C285.12724128 233.85231883 304.55449107 234.10070385 324 234 C323.34 233.38125 322.68 232.7625 322 232.125 C320 230 320 230 320 228 C319.34 228 318.68 228 318 228 C316.58984375 226.56640625 316.58984375 226.56640625 314.9375 224.5625 C312.24825006 221.39242783 309.46486623 218.41418475 306.5 215.5 C303.12276243 212.16832381 299.9834488 208.72809329 296.90625 205.12109375 C293.75377149 201.6133154 290.33777926 198.37139404 286.94140625 195.1015625 C285 193 285 193 285 191 C284.34 191 283.68 191 283 191 C281.484375 189.4609375 281.484375 189.4609375 279.75 187.375 C277.45339927 184.65952241 275.12849225 182.08737736 272.5625 179.625 C270 177 270 177 270 175 C269.34 175 268.68 175 268 175 C266.66015625 173.63671875 266.66015625 173.63671875 265.0625 171.6875 C261.59444059 167.59678274 257.87271373 163.83982622 254.05566406 160.07568359 C250.76495618 156.81102055 247.69294382 153.42798341 244.68359375 149.90625 C240.81675754 145.52802246 236.5526808 141.51571221 232.375 137.4375 C222.87507795 127.68758 222.87507795 127.68758 222.8671875 120.44921875 C222.86517334 119.23967529 222.86315918 118.03013184 222.86108398 116.78393555 C222.86521482 115.4184554 222.8698733 114.05297677 222.875 112.6875 C222.87621857 111.98726715 222.87743713 111.2870343 222.87869263 110.56558228 C222.92151481 89.02482627 223.39058064 67.4867303 223.87207031 45.95214844 C223.96889564 41.57553933 224.04868656 37.19905638 224.11454773 32.82188416 C224.16582135 29.65176153 224.24034589 26.48220591 224.3125 23.3125 C224.32273193 22.26537842 224.33296387 21.21825684 224.34350586 20.1394043 C224.55918503 12.53431352 226.16458118 5.54427352 231 -0.5 C235.05451374 -3.5408853 237.83507284 -4.61979126 243 -4 C248.72361972 -0.7720743 253.05421037 3.7812889 257.65234375 8.421875 C258.87988121 9.65009979 258.87988121 9.65009979 260.13221741 10.90313721 C261.85834258 12.63227557 263.58204461 14.36383583 265.3034668 16.09765625 C267.91992646 18.7323043 270.54423084 21.35893016 273.16992188 23.984375 C274.85203358 25.67140542 276.53368913 27.35889083 278.21484375 29.046875 C278.99109604 29.82424011 279.76734833 30.60160522 280.56712341 31.40252686 C281.30801712 32.14980042 282.04891083 32.89707397 282.81225586 33.66699219 C283.77439247 34.6348465 283.77439247 34.6348465 284.75596619 35.62225342 C286.64492024 37.62376249 288.44548229 39.66190572 290.24160767 41.74557495 C294.08341852 46.158729 298.16725779 50.28679086 302.32202148 54.40380859 C303.12283646 55.20155701 303.92365143 55.99930542 304.74873352 56.82122803 C306.47345621 58.53884059 308.19930475 60.25532327 309.92617607 61.9707756 C312.65569139 64.68281361 315.38157218 67.39845647 318.10646057 70.11514282 C325.84919281 77.83348352 333.59763199 85.54607631 341.3503418 93.25439453 C346.10252554 97.97945444 350.84946691 102.70972947 355.5936451 107.44282913 C357.40316424 109.24612295 359.21458066 111.04751494 361.02789116 112.84699631 C363.5510207 115.35103364 366.06804479 117.86105595 368.58374023 120.37255859 C369.33950348 121.11956024 370.09526672 121.86656189 370.87393188 122.63619995 C371.89369865 123.65792297 371.89369865 123.65792297 372.93406677 124.70028687 C373.52967124 125.29274893 374.12527571 125.88521099 374.73892879 126.49562645 C376 128 376 128 376 130 C376.9590625 130.4021875 376.9590625 130.4021875 377.9375 130.8125 C380 132 380 132 381 135 C381.99 135.33 382.98 135.66 384 136 C384 136.66 384 137.32 384 138 C384.66 138 385.32 138 386 138 C386 138.66 386 139.32 386 140 C386.99 140.33 387.98 140.66 389 141 C389 141.66 389 142.32 389 143 C389.99 143.33 390.98 143.66 392 144 C392 144.66 392 145.32 392 146 C392.66 146 393.32 146 394 146 C394 146.66 394 147.32 394 148 C394.99 148.33 395.98 148.66 397 149 C397 149.66 397 150.32 397 151 C397.66 151 398.32 151 399 151 C400.33203125 152.35546875 400.33203125 152.35546875 401.8125 154.1875 C404.36140482 157.32408797 407.13526278 160.15617732 410 163 C411.18470743 164.18192509 412.36912221 165.36414357 413.55331421 166.54658508 C414.93836451 167.92860939 416.32342584 169.31062264 417.70849609 170.69262695 C425.45750617 178.42525956 433.20393717 186.16047074 440.94893456 193.89712238 C445.62934519 198.57231147 450.31068691 203.24656039 454.99414062 207.91870117 C459.53435919 212.44802608 464.07210487 216.97981512 468.60817337 221.51329613 C470.33197375 223.23525598 472.05665063 224.95633887 473.78223801 226.67650795 C476.20141867 229.08839052 478.61741187 231.50342454 481.03271484 233.91918945 C481.73840103 234.62128036 482.44408722 235.32337128 483.17115784 236.04673767 C487.11147952 239.99517883 490.86798015 244.04540812 494.49669838 248.28270245 C497.16335497 251.32895929 500.13721258 254.05173026 503.08203125 256.82421875 C506.02740086 260.16550363 506.89638806 263.05022386 507.375 267.4375 C506.68846456 273.95958664 502.67105688 277.56485034 497.9765625 281.703125 C493.7200514 284.49593465 489.33833521 285.24996409 484.32522011 285.25053978 C483.21101739 285.25553913 482.09681468 285.26053847 480.94884825 285.26568931 C479.73391833 285.26102545 478.51898841 285.25636159 477.26724243 285.2515564 C475.31687254 285.25600284 475.31687254 285.25600284 473.32710123 285.26053911 C469.71680939 285.26856599 466.10662093 285.26424602 462.49632946 285.25801198 C458.5872252 285.25351307 454.67814097 285.2607141 450.76904106 285.2666254 C443.95780101 285.27546712 437.14658732 285.27740158 430.33534241 285.27496147 C419.41702347 285.27134285 408.49875138 285.28385876 397.58044434 285.29884338 C393.80501948 285.30384756 390.0295945 285.30874771 386.25416946 285.31360912 C384.83511376 285.31544861 384.83511376 285.31544861 383.38739027 285.31732525 C376.54952486 285.32600836 369.71165904 285.33287459 362.87379074 285.33881855 C318.69700047 285.37729585 274.52036496 285.45846321 230.34375 285.58984375 C229.35804608 285.59275414 228.37234216 285.59566454 227.35676843 285.59866312 C162.5976008 285.7910184 97.86683779 286.31882384 33.125 287.9375 C31.31222802 287.98246785 29.4994559 288.02743042 27.68668365 288.0723877 C9.0351936 288.53682107 -9.61493999 289.04337266 -28.2644074 289.58258176 C-49.52923114 290.19661756 -70.79659743 290.6999445 -92.06520653 291.16422939 C-98.11245666 291.29667758 -104.15922863 291.44048023 -110.2058773 291.59798908 C-113.65611796 291.68621212 -117.1065153 291.76588674 -120.55701828 291.84309578 C-122.08974835 291.87920287 -123.62239857 291.91893448 -125.1549263 291.96279716 C-142.28392692 292.44922998 -142.28392692 292.44922998 -148.75 288.1875 C-152.89734158 282.31209942 -155.82629963 274.60405887 -154.8125 267.3125 C-153.00647176 261.39394963 -148.21899912 257.30750959 -144 253 C-143.13101808 251.94958229 -142.27367401 250.88921722 -141.4375 249.8125 C-139.54310493 247.62665954 -137.84866638 245.96899413 -135.66015625 244.13671875 C-129.4524607 238.75859386 -123.76965649 232.83814873 -118 227 C-115.73221143 224.70529026 -113.46090292 222.41414624 -111.1875 220.125 C-110.68516846 219.61437012 -110.18283691 219.10374023 -109.6652832 218.57763672 C-106.94873171 215.84292468 -104.16154432 213.24787156 -101.23742676 210.73544312 C-97.35309788 207.34944734 -93.66957158 203.81147634 -90.03320312 200.16259766 C-89.38829926 199.51944611 -88.74339539 198.87629456 -88.07894897 198.21365356 C-85.97721696 196.11627465 -83.87910643 194.01531732 -81.78125 191.9140625 C-80.31309357 190.44658042 -78.84478879 188.97924675 -77.37634277 187.51205444 C-74.31534929 184.45252855 -71.25615546 181.39121768 -68.19824219 178.32861328 C-64.26944941 174.39408832 -60.33613662 170.46411725 -56.40149689 166.53544044 C-53.37667626 163.51422076 -50.35422575 160.49063911 -47.33250427 157.46632004 C-45.88188673 156.01503375 -44.43052142 154.56449451 -42.97840881 153.11470413 C-40.96039786 151.09921582 -38.94559121 149.0805796 -36.93164062 147.06103516 C-36.32706024 146.458479 -35.72247986 145.85592285 -35.09957886 145.23510742 C-32.30110901 142.98242538 -32.30110901 142.98242538 -31 140 C-31.55107233 139.98730418 -32.10214466 139.97460836 -32.66991615 139.96152782 C-46.09152815 139.65133407 -59.51267173 139.32520079 -72.93348122 138.98198223 C-79.42376222 138.81648314 -85.91408422 138.65625455 -92.40478516 138.50805664 C-98.66857212 138.36484591 -104.93187365 138.2078094 -111.1950798 138.04117775 C-113.58475024 137.98003341 -115.97455358 137.92387334 -118.36445999 137.87277794 C-121.71172343 137.80036311 -125.05807604 137.71024435 -128.40478516 137.6159668 C-129.39309326 137.59870041 -130.38140137 137.58143402 -131.3996582 137.56364441 C-139.30820655 137.31037074 -144.09074386 134.98786387 -150.25 130 C-151.10078125 129.319375 -151.9515625 128.63875 -152.828125 127.9375 C-156.24057899 124.89329644 -157.42200343 122.43584754 -158 118 C-158.14220011 114.64406765 -158.13971554 111.29214241 -158.1328125 107.93359375 C-158.13426773 106.90317963 -158.13572296 105.8727655 -158.13722229 104.81112671 C-158.13950187 101.35321628 -158.13308959 97.89540103 -158.125 94.4375 C-158.12311676 93.2449057 -158.12123352 92.0523114 -158.11929321 90.82357788 C-158.10322213 81.993427 -158.06342969 73.16351915 -158.01314545 64.33351135 C-157.9995359 61.91761537 -157.98671783 59.50171593 -157.97393799 57.08581543 C-157.91752149 46.70995463 -157.83804818 36.33452227 -157.73553467 25.95901489 C-157.70206961 22.52875467 -157.6753022 19.09853988 -157.65411377 15.66818237 C-157.62840779 11.59055365 -157.58815413 7.51331781 -157.53693962 3.43593216 C-157.52029217 1.92345491 -157.50865942 0.4109131 -157.50235176 -1.10164261 C-157.49275702 -3.18300859 -157.46483007 -5.263365 -157.43237305 -7.34448242 C-157.42126999 -8.51460373 -157.41016693 -9.68472504 -157.39872742 -10.89030457 C-156.86104676 -15.08370337 -155.42819135 -17.83147981 -152.15234375 -20.51171875 C-111.13061591 -42.28868538 -37.51119853 -20.39992578 0 0 Z " fill="#FFFFFF" transform="translate(178,80)"/>
<path d="M0 0 C0.82081055 0.64678711 0.82081055 0.64678711 1.65820312 1.30664062 C16.23871 12.79680332 27.16752687 26.72965477 36 43 C36.32194336 43.58491211 36.64388672 44.16982422 36.97558594 44.77246094 C41.73566859 53.50821139 45.27488286 62.44065114 48 72 C48.18691406 72.65307129 48.37382813 73.30614258 48.56640625 73.97900391 C58.78283533 110.72778508 54.70718665 151.4939419 36.16992188 184.95849609 C30.62391701 194.63622829 24.72850001 203.86159625 16.97265625 211.921875 C14.89082769 214.04346166 14.89082769 214.04346166 12.87109375 216.765625 C12.25363281 217.50296875 11.63617187 218.2403125 11 219 C10.34 219 9.68 219 9 219 C9 219.66 9 220.32 9 221 C6.96950701 222.67127534 4.92312014 224.24807692 2.8125 225.8125 C-4.25809604 231.19417559 -10.50279647 237.15912747 -16.62084961 243.59008789 C-17.84281362 244.8393076 -19.13979239 246.01416033 -20.4453125 247.17578125 C-24.30769485 251.44566265 -26.96422157 256.32820577 -29.8125 261.3125 C-30.4327002 262.38685303 -31.05290039 263.46120605 -31.69189453 264.56811523 C-35.78121523 271.70971859 -39.61898426 278.92648566 -43.203125 286.33203125 C-45.38299289 290.83252008 -47.75809907 295.22413317 -50.13769531 299.62133789 C-52.24572732 303.53245662 -54.209601 307.48963334 -56.125 311.5 C-59.13764546 317.53341126 -62.23499362 322.93580464 -68.5 325.9375 C-73.26980273 327.38547583 -76.28422154 327.60767154 -81 325.9375 C-87.93164289 321.46081397 -91.48445658 314.67478511 -95.55102539 307.74633789 C-98.36276922 302.98068029 -101.4000932 298.49363772 -104.71484375 294.05859375 C-107.62969263 290.15718063 -110.46814883 286.20294852 -113.3125 282.25 C-121.50639928 270.88987158 -121.50639928 270.88987158 -129.8125 259.61181641 C-130.88515337 258.15588353 -131.92879212 256.67868264 -132.96875 255.19921875 C-137.54986152 248.95842488 -143.04149991 244.87416471 -149.34765625 240.55078125 C-159.94067804 233.25037465 -168.49087776 224.65271628 -176.59326172 214.70800781 C-177.93370423 213.08049379 -179.30369454 211.48570613 -180.69140625 209.8984375 C-207.4236587 178.96248733 -216.96363422 140.1127132 -215 100 C-211.62120286 62.28383356 -193.39431836 27.03275669 -165 2 C-117.32586093 -36.93810055 -48.21490565 -39.54132474 0 0 Z M-99 19 C-99 19.66 -99 20.32 -99 21 C-99.53625 20.79375 -100.0725 20.5875 -100.625 20.375 C-103.83267308 19.8685253 -106.01317066 20.84599775 -109 22 C-109 22.66 -109 23.32 -109 24 C-110.11375 23.9071875 -110.11375 23.9071875 -111.25 23.8125 C-114.47519908 24.03239994 -115.69723426 24.78252188 -118 27 C-118 27.66 -118 28.32 -118 29 C-119.65 29.33 -121.3 29.66 -123 30 C-123 30.66 -123 31.32 -123 32 C-124.65 32.33 -126.3 32.66 -128 33 C-128 33.66 -128 34.32 -128 35 C-128.66 35 -129.32 35 -130 35 C-131.66666667 36.33333333 -131.66666667 36.33333333 -133 38 C-133 38.66 -133 39.32 -133 40 C-133.99 40.33 -134.98 40.66 -136 41 C-136 41.66 -136 42.32 -136 43 C-136.66 43 -137.32 43 -138 43 C-140.56017405 45.14148607 -142.07840606 47.60073163 -143.6875 50.5 C-144.12449219 51.2734375 -144.56148437 52.046875 -145.01171875 52.84375 C-146.20832736 55.05920857 -146.20832736 55.05920857 -146 58 C-147.485 58.495 -147.485 58.495 -149 59 C-149.33 61.64 -149.66 64.28 -150 67 C-150.66 67 -151.32 67 -152 67 C-152 68.65 -152 70.3 -152 72 C-152.66 72 -153.32 72 -154 72 C-154.91657981 77.38490641 -155.11138159 82.54230189 -155 88 C-155.66 88 -156.32 88 -157 88 C-157 92.62 -157 97.24 -157 102 C-156.34 102 -155.68 102 -155 102 C-155.01160156 102.90363281 -155.02320313 103.80726563 -155.03515625 104.73828125 C-155.04417969 105.91777344 -155.05320312 107.09726563 -155.0625 108.3125 C-155.07410156 109.48425781 -155.08570313 110.65601563 -155.09765625 111.86328125 C-155.14899898 115.03059195 -155.14899898 115.03059195 -154 118 C-153.34 118 -152.68 118 -152 118 C-152.33 119.32 -152.66 120.64 -153 122 C-152.01 122.33 -151.02 122.66 -150 123 C-150.20625 123.556875 -150.4125 124.11375 -150.625 124.6875 C-151.10695211 127.659538 -150.26565028 129.31979941 -149 132 C-148.34 132 -147.68 132 -147 132 C-146.67 133.65 -146.34 135.3 -146 137 C-145.34 137 -144.68 137 -144 137 C-144 137.66 -144 138.32 -144 139 C-143.34 139 -142.68 139 -142 139 C-141.9175 139.53625 -141.835 140.0725 -141.75 140.625 C-139.52870202 147.65911026 -133.55317885 153.39791808 -128 158 C-127.01 158 -126.02 158 -125 158 C-125 158.66 -125 159.32 -125 160 C-123.906875 160.66 -122.81375 161.32 -121.6875 162 C-120.76517578 162.556875 -120.76517578 162.556875 -119.82421875 163.125 C-117.88638074 164.21623999 -117.88638074 164.21623999 -115 164 C-115 164.66 -115 165.32 -115 166 C-114.01 166 -113.02 166 -112 166 C-112 166.66 -112 167.32 -112 168 C-109.36 168.33 -106.72 168.66 -104 169 C-104 169.66 -104 170.32 -104 171 C-98.42567486 172.66251802 -94.6932495 173.18609365 -89 172 C-89 172.66 -89 173.32 -89 174 C-82.73 174 -76.46 174 -70 174 C-70 173.34 -70 172.68 -70 172 C-65.71 171.67 -61.42 171.34 -57 171 C-57 170.34 -57 169.68 -57 169 C-56.0925 168.87625 -55.185 168.7525 -54.25 168.625 C-51.41029677 168.07890323 -49.47409409 167.42736197 -47 166 C-47 165.34 -47 164.68 -47 164 C-46.0925 163.9175 -45.185 163.835 -44.25 163.75 C-40.49399688 162.88323005 -39.54333032 161.78945906 -37 159 C-35.85144531 158.33291016 -35.85144531 158.33291016 -34.6796875 157.65234375 C-31.7694222 155.85782156 -29.59418925 153.86015402 -27.1875 151.4375 C-26.39730469 150.65246094 -25.60710937 149.86742187 -24.79296875 149.05859375 C-22.78107309 147.20362864 -22.78107309 147.20362864 -23 145 C-22.34 145 -21.68 145 -21 145 C-18.95830515 142.09451118 -18 140.59857954 -18 137 C-17.01 136.67 -16.02 136.34 -15 136 C-15 134.68 -15 133.36 -15 132 C-14.34 132 -13.68 132 -13 132 C-12.67 129.36 -12.34 126.72 -12 124 C-11.34 124 -10.68 124 -10 124 C-10 122.35 -10 120.7 -10 119 C-9.34 118.67 -8.68 118.34 -8 118 C-8.33 116.35 -8.66 114.7 -9 113 C-8.34 113 -7.68 113 -7 113 C-4.81119218 106.82289017 -4.73160919 101.13883924 -4.8125 94.625 C-4.81314453 93.61566406 -4.81378906 92.60632813 -4.81445312 91.56640625 C-4.41162823 86.94216445 -4.41162823 86.94216445 -6 83 C-6.45459858 80.34536879 -6.70243238 77.67810862 -7 75 C-7.66 75 -8.32 75 -9 75 C-8.79375 74.443125 -8.5875 73.88625 -8.375 73.3125 C-7.89304789 70.340462 -8.73434972 68.68020059 -10 66 C-10.66 66 -11.32 66 -12 66 C-12.33 63.69 -12.66 61.38 -13 59 C-13.66 59 -14.32 59 -15 59 C-15 58.01 -15 57.02 -15 56 C-15.66 56 -16.32 56 -17 56 C-16.67 55.01 -16.34 54.02 -16 53 C-16.66 53 -17.32 53 -18 53 C-18 52.34 -18 51.68 -18 51 C-18.66 51 -19.32 51 -20 51 C-20.0920874 50.42113037 -20.1841748 49.84226074 -20.27905273 49.24584961 C-21.1769825 46.44867525 -22.46771392 45.14451204 -24.53515625 43.06640625 C-25.26283203 42.33486328 -25.99050781 41.60332031 -26.74023438 40.84960938 C-27.50658203 40.09486328 -28.27292969 39.34011719 -29.0625 38.5625 C-29.80177734 37.81162109 -30.54105469 37.06074219 -31.30273438 36.28710938 C-37.9330065 29.64657248 -37.9330065 29.64657248 -46 25 C-46.99 25.33 -47.98 25.66 -49 26 C-49 25.34 -49 24.68 -49 24 C-49.99 24 -50.98 24 -52 24 C-52 23.34 -52 22.68 -52 22 C-56.95 21.505 -56.95 21.505 -62 21 C-62 20.34 -62 19.68 -62 19 C-64.64 19 -67.28 19 -70 19 C-70.495 18.01 -70.495 18.01 -71 17 C-74.35409194 16.94140143 -77.70805017 16.90620418 -81.0625 16.875 C-82.00544922 16.85824219 -82.94839844 16.84148437 -83.91992188 16.82421875 C-89.36523938 16.78627229 -93.85499388 17.18747357 -99 19 Z " fill="#FFFFFF" transform="translate(964,123)"/>
<path d="M0 0 C17.7349095 13.68569099 29.31968778 31.04173989 32.7487793 53.36376953 C34.89259858 75.3937274 30.80630776 96.11928417 17.4362793 114.11376953 C2.17495261 132.40016988 -16.33788236 142.1623655 -39.9230957 144.64501953 C-61.35688854 145.50812528 -80.00915137 135.82261605 -95.6340332 122.06298828 C-97.2512207 120.36376953 -97.2512207 120.36376953 -97.2512207 118.36376953 C-97.9112207 118.36376953 -98.5712207 118.36376953 -99.2512207 118.36376953 C-100.79331531 116.45811628 -102.18870154 114.57332335 -103.5637207 112.55126953 C-104.1692981 111.66266235 -104.1692981 111.66266235 -104.78710938 110.75610352 C-117.08177184 92.30545683 -121.00774566 70.01503464 -116.72949219 48.35522461 C-112.42644457 28.86467116 -101.29730332 10.4611782 -84.3762207 -0.51123047 C-78.29013191 -4.28542796 -72.03290078 -7.30245393 -65.2512207 -9.63623047 C-64.36821289 -9.95462891 -63.48520508 -10.27302734 -62.57543945 -10.60107422 C-42.14160042 -16.87284659 -17.11666951 -12.60054498 0 0 Z " fill="#FFFFFF" transform="translate(632.251220703125,381.63623046875)"/>
<path d="M0 0 C4.08025373 1.55257915 6.37737059 4.4631393 9.0625 7.75 C9.54146729 8.32564697 10.02043457 8.90129395 10.51391602 9.49438477 C14.36694233 14.15340449 18.08868168 18.91264737 21.79638672 23.6875 C25.63077569 28.59856688 29.65611427 33.32458535 33.73242188 38.03540039 C37.1812754 42.02636076 40.52191051 46.08390677 43.79296875 50.22265625 C47.30234575 54.63888111 50.87225159 59.00582429 54.43334961 63.38037109 C55.48446611 64.67211996 56.53224974 65.96659027 57.57617188 67.26416016 C58.82644347 68.78841102 60.13558618 70.26397251 61.453125 71.73046875 C63 74 63 74 62.94506836 75.77734375 C61.51982889 79.12928902 59.00336217 81.34256094 56.42578125 83.83203125 C55.58360298 84.66428474 55.58360298 84.66428474 54.72441101 85.51335144 C52.92740351 87.28697853 51.12058098 89.05016883 49.3125 90.8125 C47.52396674 92.56574121 45.73766394 94.32116919 43.95414734 96.07951355 C42.84546528 97.17149405 41.73370087 98.26035783 40.61824036 99.34541321 C37.32062107 102.58077144 34.26247755 105.94266413 31.30070496 109.48866272 C29.67195437 111.38116837 27.90505409 113.01364175 26 114.625 C25.32066406 115.20636719 24.64132812 115.78773438 23.94140625 116.38671875 C22.29089827 117.75826764 20.61658364 119.10108649 18.9375 120.4375 C15.90858055 123.07974888 13.44781357 125.90719726 10.8515625 128.9609375 C9.01050183 130.98843469 7.08984619 132.73290998 5 134.5 C2.40574291 136.69405825 0.12453992 138.91542082 -2.0546875 141.51953125 C-6.79830041 147.01579741 -11.97239656 152.08018478 -17.125 157.1875 C-18.11091377 158.16838194 -19.09659221 159.14950049 -20.08203125 160.13085938 C-21.89455441 161.93530568 -23.70865782 163.73810452 -25.52392578 165.53979492 C-28.02132933 168.02119263 -30.51177015 170.50940641 -33 173 C-35.03060149 175.03060149 -37.06125329 177.06113901 -39.09375 179.08984375 C-40.57209362 180.57121677 -42.03852214 182.06448519 -43.5 183.5625 C-45.60955351 185.61931467 -47.76210383 187.52526782 -50 189.4375 C-52.44003768 191.54521911 -54.42126162 193.50551395 -56.5 196 C-59.11364598 199.13637517 -61.90667422 201.63163081 -65.01953125 204.25390625 C-66.87213502 205.88726697 -68.47862786 207.60099564 -70.125 209.4375 C-73 212 -73 212 -76.375 212.375 C-77.24125 212.25125 -78.1075 212.1275 -79 212 C-80.24659036 206.19674661 -80.14775517 200.47052332 -80.14526367 194.56616211 C-80.14862228 193.42239609 -80.1519809 192.27863007 -80.15544128 191.10020447 C-80.16492731 187.32590647 -80.16689298 183.55165292 -80.16796875 179.77734375 C-80.17118209 177.15230796 -80.17454622 174.52727235 -80.17805481 171.90223694 C-80.18444012 166.40381582 -80.18593816 160.90540674 -80.18530273 155.40698242 C-80.18470129 149.05626506 -80.19527037 142.70563245 -80.2110464 136.35493654 C-80.2257034 130.23602698 -80.22929071 124.11715809 -80.22869301 117.99823189 C-80.22987427 115.39827693 -80.23430423 112.79832137 -80.24202538 110.19837761 C-80.25180296 106.56699408 -80.2489563 102.93583029 -80.24291992 99.30444336 C-80.24853943 98.22845886 -80.25415894 97.15247437 -80.25994873 96.04388428 C-80.25575424 95.05281174 -80.25155975 94.0617392 -80.24723816 93.04063416 C-80.24778293 92.18286345 -80.24832769 91.32509275 -80.24888897 90.441329 C-79.71416599 85.1962805 -77.57307869 82.22801041 -73.8125 78.6875 C-70.92623273 75.902344 -68.16057269 73.11832835 -65.5625 70.0625 C-62.84380752 66.8896408 -59.97248325 63.93661618 -57 61 C-52.07604593 56.12819067 -47.54431706 51.02202557 -43.0859375 45.7265625 C-42.45945312 44.99179687 -41.83296875 44.25703125 -41.1875 43.5 C-40.62417969 42.8296875 -40.06085937 42.159375 -39.48046875 41.46875 C-38 40 -38 40 -36 40 C-35.59817505 39.10812988 -35.59817505 39.10812988 -35.18823242 38.19824219 C-33.98789327 35.97760243 -32.79297002 34.5756393 -30.98828125 32.828125 C-30.39869629 32.2501416 -29.80911133 31.6721582 -29.20166016 31.07666016 C-28.5782373 30.4738623 -27.95481445 29.87106445 -27.3125 29.25 C-22.88671583 24.90490878 -18.59610812 20.54883021 -14.58984375 15.80859375 C-12.10428854 12.98104568 -9.40226488 10.37979683 -6.69921875 7.76171875 C-4.80910864 5.90690694 -4.80910864 5.90690694 -3 3 C-2.34 3 -1.68 3 -1 3 C-0.67 2.01 -0.34 1.02 0 0 Z " fill="#FFFFFF" transform="translate(792,378)"/>
<path d="M0 0 C2.78823237 1.28923981 4.98996602 2.68619531 7.28515625 4.72265625 C7.89230469 5.25632812 8.49945312 5.79 9.125 6.33984375 C9.764375 6.90832031 10.40375 7.47679687 11.0625 8.0625 C12.41691314 9.25250461 13.77238739 10.44130257 15.12890625 11.62890625 C15.79164551 12.20914551 16.45438477 12.78938477 17.13720703 13.38720703 C19.5505066 15.47662472 22.01660672 17.49461325 24.5 19.5 C28.91669579 23.0754204 33.2176985 26.76610729 37.5 30.5 C43.57042675 35.78989976 49.73509792 40.94097381 56 46 C62.69160582 51.41890813 69.28282943 56.93593688 75.80566406 62.55566406 C80.21992085 66.35139335 84.7031536 70.05263427 89.22265625 73.72265625 C92.34396501 76.28204163 95.42445484 78.88598963 98.5 81.5 C105.90213674 87.7882496 113.40891637 93.9406886 121 100 C120.49322406 105.69217976 118.21582492 109.78900894 115.5 114.6875 C110.29870737 124.2946269 105.59397121 134.0907819 101 144 C97 144 97 144 95.44822693 142.62106323 C94.93993851 141.9738028 94.43165009 141.32654236 93.90795898 140.65966797 C89.86274302 135.7649788 85.44137256 131.34145018 80.92607307 126.88147354 C79.43985543 125.41290111 77.95742802 123.94059422 76.47593689 122.46725464 C72.26975905 118.28533294 68.05768837 114.10938138 63.84155273 109.9375 C61.2487041 107.37135507 58.66068495 104.80042194 56.07562065 102.22643661 C55.092265 101.24929547 54.10701515 100.27405679 53.1198597 99.30075455 C51.74868161 97.94868704 50.38405321 96.58998681 49.01977539 95.23095703 C48.24146866 94.46010773 47.46316193 93.68925842 46.66127014 92.89505005 C45 91 45 91 45 89 C44.01 88.67 43.02 88.34 42 88 C42 87.34 42 86.68 42 86 C41.34 86 40.68 86 40 86 C40 85.34 40 84.68 40 84 C39.01 83.67 38.02 83.34 37 83 C37 82.34 37 81.68 37 81 C36.34 81 35.68 81 35 81 C33.66796875 79.64453125 33.66796875 79.64453125 32.1875 77.8125 C29.63841993 74.67569638 26.86791982 71.84116147 24 69 C23.39584763 68.40075211 22.79169525 67.80150421 22.16923523 67.18409729 C20.76986559 65.79638599 19.37023672 64.40893606 17.97039795 63.021698 C14.74230815 59.82030965 11.5194505 56.61367628 8.296875 53.40673828 C6.593565 51.71355148 4.88847386 50.02215464 3.18164062 48.33251953 C0.71536194 45.89041076 -1.7444798 43.44197823 -4.203125 40.9921875 C-4.9697345 40.23590057 -5.73634399 39.47961365 -6.52618408 38.70040894 C-7.23071716 37.99602692 -7.93525024 37.2916449 -8.66113281 36.56591797 C-9.28336731 35.94812469 -9.90560181 35.33033142 -10.54669189 34.69381714 C-12 33 -12 33 -13 30 C-12.13549805 27.44384766 -12.13549805 27.44384766 -10.76171875 24.4140625 C-10.27123047 23.31835938 -9.78074219 22.22265625 -9.27539062 21.09375 C-8.75138672 19.9490625 -8.22738281 18.804375 -7.6875 17.625 C-6.67005385 15.36742136 -5.65310832 13.10961702 -4.63671875 10.8515625 C-4.17998779 9.84947754 -3.72325684 8.84739258 -3.25268555 7.81494141 C-2.10314336 5.23177605 -1.0302401 2.6326685 0 0 Z " fill="#FFFFFF" transform="translate(511,0)"/>
<path d="M0 0 C3.73884332 2.65654657 5.64978174 4.58110387 7 9 C4.03595495 6.19195732 1.55500981 3.81684226 0 0 Z " fill="#FFFFFF" transform="translate(808,367)"/>
<path d="M0 0 C0.66 0 1.32 0 2 0 C2 0.66 2 1.32 2 2 C1.34 2 0.68 2 0 2 C0 1.34 0 0.68 0 0 Z " fill="#FFFFFF" transform="translate(899,292)"/>
<path d="M0 0 C0.66 0 1.32 0 2 0 C2 0.66 2 1.32 2 2 C1.34 2 0.68 2 0 2 C0 1.34 0 0.68 0 0 Z " fill="#FFFFFF" transform="translate(823,263)"/>
<path d="M0 0 C0.66 0 1.32 0 2 0 C2 0.66 2 1.32 2 2 C1.34 2 0.68 2 0 2 C0 1.34 0 0.68 0 0 Z " fill="#FFFFFF" transform="translate(815,187)"/>
<path d="M0 0 C0.66 0 1.32 0 2 0 C2 0.66 2 1.32 2 2 C1.34 2 0.68 2 0 2 C0 1.34 0 0.68 0 0 Z " fill="#FFFFFF" transform="translate(936,166)"/>
<path d="M0 0 C0.66 0 1.32 0 2 0 C2 0.66 2 1.32 2 2 C1.34 2 0.68 2 0 2 C0 1.34 0 0.68 0 0 Z " fill="#FFFFFF" transform="translate(928,158)"/>
<path d="M0 0 C0.33 0.66 0.66 1.32 1 2 C0.34 1.67 -0.32 1.34 -1 1 C-0.67 0.67 -0.34 0.34 0 0 Z " fill="#FFFFFF" transform="translate(840,279)"/>
<path d="M0 0 C0.33 0.66 0.66 1.32 1 2 C0.34 1.67 -0.32 1.34 -1 1 C-0.67 0.67 -0.34 0.34 0 0 Z " fill="#FFFFFF" transform="translate(945,258)"/>
<path d="M0 0 C0.99 0.495 0.99 0.495 2 1 C1.01 1.495 1.01 1.495 0 2 C0 1.34 0 0.68 0 0 Z " fill="#FFFFFF" transform="translate(836,158)"/>
<path d="M0 0 C0.66 0 1.32 0 2 0 C1.67 0.66 1.34 1.32 1 2 C0.67 1.34 0.34 0.68 0 0 Z " fill="#FFFFFF" transform="translate(847,150)"/>
<path d="" fill="#FFFFFF" transform="translate(0,0)"/>
<path d="" fill="#FFFFFF" transform="translate(0,0)"/>
<path d="M0 0 C2 1 2 1 2 1 Z " fill="#FFFFFF" transform="translate(860,291)"/>
<path d="M0 0 C2 1 2 1 2 1 Z " fill="#FFFFFF" transform="translate(852,288)"/>
<path d="M0 0 C2 1 2 1 2 1 Z " fill="#FFFFFF" transform="translate(915,286)"/>
<path d="" fill="#FFFFFF" transform="translate(0,0)"/>
<path d="" fill="#FFFFFF" transform="translate(0,0)"/>
<path d="M0 0 C2 1 2 1 2 1 Z " fill="#FFFFFF" transform="translate(923,281)"/>
<path d="" fill="#FFFFFF" transform="translate(0,0)"/>
<path d="M0 0 C2 1 2 1 2 1 Z " fill="#FFFFFF" transform="translate(928,278)"/>
<path d="M0 0 C2 1 2 1 2 1 Z " fill="#FFFFFF" transform="translate(836,278)"/>
<path d="" fill="#FFFFFF" transform="translate(0,0)"/>
<path d="" fill="#FFFFFF" transform="translate(0,0)"/>
<path d="M0 0 C2 1 2 1 2 1 Z " fill="#FFFFFF" transform="translate(931,275)"/>
<path d="M0 0 C2 1 2 1 2 1 Z " fill="#FFFFFF" transform="translate(831,273)"/>
<path d="" fill="#FFFFFF" transform="translate(0,0)"/>
<path d="" fill="#FFFFFF" transform="translate(0,0)"/>
<path d="M0 0 C2 1 2 1 2 1 Z " fill="#FFFFFF" transform="translate(936,270)"/>
<path d="M0 0 C2 1 2 1 2 1 Z " fill="#FFFFFF" transform="translate(828,270)"/>
<path d="M0 0 C2 1 2 1 2 1 Z " fill="#FFFFFF" transform="translate(939,267)"/>
<path d="" fill="#FFFFFF" transform="translate(0,0)"/>
<path d="" fill="#FFFFFF" transform="translate(0,0)"/>
<path d="M0 0 C2 1 2 1 2 1 Z " fill="#FFFFFF" transform="translate(818,257)"/>
<path d="M0 0 C2 1 2 1 2 1 Z " fill="#FFFFFF" transform="translate(949,249)"/>
<path d="M0 0 C2 1 2 1 2 1 Z " fill="#FFFFFF" transform="translate(815,249)"/>
<path d="M0 0 C2 1 2 1 2 1 Z " fill="#FFFFFF" transform="translate(952,241)"/>
<path d="" fill="#FFFFFF" transform="translate(0,0)"/>
<path d="M0 0 C2 1 2 1 2 1 Z " fill="#FFFFFF" transform="translate(810,233)"/>
<path d="M0 0 C2 1 2 1 2 1 Z " fill="#FFFFFF" transform="translate(810,202)"/>
<path d="" fill="#FFFFFF" transform="translate(0,0)"/>
<path d="M0 0 C2 1 2 1 2 1 Z " fill="#FFFFFF" transform="translate(952,194)"/>
<path d="M0 0 C2 1 2 1 2 1 Z " fill="#FFFFFF" transform="translate(949,186)"/>
<path d="M0 0 C2 1 2 1 2 1 Z " fill="#FFFFFF" transform="translate(818,181)"/>
<path d="" fill="#FFFFFF" transform="translate(0,0)"/>
<path d="M0 0 C2 1 2 1 2 1 Z " fill="#FFFFFF" transform="translate(944,176)"/>
<path d="" fill="#FFFFFF" transform="translate(0,0)"/>
<path d="" fill="#FFFFFF" transform="translate(0,0)"/>
<path d="M0 0 C2 1 2 1 2 1 Z " fill="#FFFFFF" transform="translate(823,173)"/>
<path d="" fill="#FFFFFF" transform="translate(0,0)"/>
<path d="" fill="#FFFFFF" transform="translate(0,0)"/>
<path d="" fill="#FFFFFF" transform="translate(0,0)"/>
<path d="M0 0 C2 1 2 1 2 1 Z " fill="#FFFFFF" transform="translate(831,163)"/>
<path d="M0 0 C2 1 2 1 2 1 Z " fill="#FFFFFF" transform="translate(931,162)"/>
<path d="" fill="#FFFFFF" transform="translate(0,0)"/>
<path d="M0 0 C2 1 2 1 2 1 Z " fill="#FFFFFF" transform="translate(920,152)"/>
<path d="" fill="#FFFFFF" transform="translate(0,0)"/>
<path d="M0 0 C2 1 2 1 2 1 Z " fill="#FFFFFF" transform="translate(910,147)"/>
<path d="" fill="#FFFFFF" transform="translate(0,0)"/>
<path d="" fill="#FFFFFF" transform="translate(0,0)"/>
<path d="M0 0 C2 1 2 1 2 1 Z " fill="#FFFFFF" transform="translate(865,144)"/>
<path d="" fill="#FFFFFF" transform="translate(0,0)"/>
<path d="" fill="#FFFFFF" transform="translate(0,0)"/>
<path d="" fill="#FFFFFF" transform="translate(0,0)"/>
<path d="" fill="#FFFFFF" transform="translate(0,0)"/>
<path d="" fill="#FFFFFF" transform="translate(0,0)"/>
<path d="" fill="#FFFFFF" transform="translate(0,0)"/>
<path d="" fill="#FFFFFF" transform="translate(0,0)"/>
<path d="" fill="#FFFFFF" transform="translate(0,0)"/>
<path d="" fill="#FFFFFF" transform="translate(0,0)"/>
<path d="" fill="#FFFFFF" transform="translate(0,0)"/>
<path d="" fill="#FFFFFF" transform="translate(0,0)"/>
<path d="" fill="#FFFFFF" transform="translate(0,0)"/>
<path d="" fill="#FFFFFF" transform="translate(0,0)"/>
<path d="" fill="#FFFFFF" transform="translate(0,0)"/>
<path d="" fill="#FFFFFF" transform="translate(0,0)"/>
<path d="" fill="#FFFFFF" transform="translate(0,0)"/>
<path d="" fill="#FFFFFF" transform="translate(0,0)"/>
<path d="" fill="#FFFFFF" transform="translate(0,0)"/>
<path d="" fill="#FFFFFF" transform="translate(0,0)"/>
<path d="" fill="#FFFFFF" transform="translate(0,0)"/>
<path d="" fill="#FFFFFF" transform="translate(0,0)"/>
<path d="" fill="#FFFFFF" transform="translate(0,0)"/>
<path d="" fill="#FFFFFF" transform="translate(0,0)"/>
<path d="" fill="#FFFFFF" transform="translate(0,0)"/>
<path d="" fill="#FFFFFF" transform="translate(0,0)"/>
<path d="" fill="#FFFFFF" transform="translate(0,0)"/>
<path d="" fill="#FFFFFF" transform="translate(0,0)"/>
<path d="" fill="#FFFFFF" transform="translate(0,0)"/>
<path d="" fill="#FFFFFF" transform="translate(0,0)"/>
<path d="" fill="#FFFFFF" transform="translate(0,0)"/>
<path d="" fill="#FFFFFF" transform="translate(0,0)"/>
<path d="" fill="#FFFFFF" transform="translate(0,0)"/>
<path d="" fill="#FFFFFF" transform="translate(0,0)"/>
<path d="" fill="#FFFFFF" transform="translate(0,0)"/>
<path d="" fill="#FFFFFF" transform="translate(0,0)"/>
<path d="" fill="#FFFFFF" transform="translate(0,0)"/>
<path d="" fill="#FFFFFF" transform="translate(0,0)"/>
<path d="" fill="#FFFFFF" transform="translate(0,0)"/>
<path d="" fill="#FFFFFF" transform="translate(0,0)"/>
<path d="" fill="#FFFFFF" transform="translate(0,0)"/>
<path d="" fill="#FFFFFF" transform="translate(0,0)"/>
<path d="" fill="#FFFFFF" transform="translate(0,0)"/>
<path d="" fill="#FFFFFF" transform="translate(0,0)"/>
<path d="" fill="#FFFFFF" transform="translate(0,0)"/>
<path d="" fill="#FFFFFF" transform="translate(0,0)"/>
<path d="" fill="#FFFFFF" transform="translate(0,0)"/>
<path d="" fill="#FFFFFF" transform="translate(0,0)"/>
<path d="" fill="#FFFFFF" transform="translate(0,0)"/>
<path d="" fill="#FFFFFF" transform="translate(0,0)"/>
<path d="" fill="#FFFFFF" transform="translate(0,0)"/>
<path d="" fill="#FFFFFF" transform="translate(0,0)"/>
<path d="" fill="#FFFFFF" transform="translate(0,0)"/>
<path d="" fill="#FFFFFF" transform="translate(0,0)"/>
<path d="" fill="#FFFFFF" transform="translate(0,0)"/>
<path d="" fill="#FFFFFF" transform="translate(0,0)"/>
</svg>
